{"title":"Lost S01E14 - AVM","uid":5044058,"size":143895950,"categoryP":"video","categoryS":"tv_shows","magnet":"?xt=urn:btih:bed40200a57bbe1c09b876267bd532c8ce6c5130&amp;dn=Lost+S01E14+-+AVM&amp;tr=udp%3A%2F%2Ftracker.openbittorrent.com%3A80&amp;tr=udp%3A%2F%2Fopen.demonii.com%3A1337&amp;tr=udp%3A%2F%2Ftracker.coppersurfer.tk%3A6969&amp;tr=udp%3A%2F%2Fexodus.desync.com%3A6969","seeders":0,"leechers":1,"uploader":"SysProfile","files":1,"time":1249535072,"description":"AVIDMobile - http://www.avidmobile.com.ar (Mobile media)\n\nVideo\nID                               : 1\nFormat                           : MPEG-4 Visual\nFormat profile                   : Simple@L1\nFormat settings, BVOP            : No\nFormat settings, QPel            : No\nFormat settings, GMC             : No warppoints\nFormat settings, Matrix          : Default (H.263)\nCodec ID                         : 20\nDuration                         : 43mn 17s\nBit rate mode                    : Variable\nBit rate                         : 373 Kbps\nMaximum bit rate                 : 1 996 Kbps\nWidth                            : 320 pixels\nHeight                           : 240 pixels\nDisplay aspect ratio             : 4/3\nFrame rate mode                  : Variable\nFrame rate                       : 23.976 fps\nMinimum frame rate               : 23.974 fps\nMaximum frame rate               : 23.981 fps\nResolution                       : 24 bits\nColorimetry                      : 4:2:0\nScan type                        : Progressive\nBits/(Pixel*Frame)               : 0.202\nStream size                      : 115 MiB (84%)\n\nAudio\nID                               : 2\nFormat                           : AAC\nFormat/Info                      : Advanced Audio Codec\nFormat version                   : Version 4\nFormat profile                   : LC\nFormat settings, SBR             : No\nCodec ID                         : 40\nDuration                         : 43mn 17s\nBit rate mode                    : Variable\nBit rate                         : 68.2 Kbps\nMaximum bit rate                 : 149 Kbps\nChannel(s)                       : 2 channels\nChannel positions                : L R\nSampling rate                    : 22.05 KHz\nResolution                       : 16 bits\nStream size                      : 21.1 MiB (15%)\n","torrent":{"xt":"urn:btih:bed40200a57bbe1c09b876267bd532c8ce6c5130","amp;dn":"Lost+S01E14+-+AVM","amp;tr":["udp%3A%2F%2Ftracker.openbittorrent.com%3A80","udp%3A%2F%2Fopen.demonii.com%3A1337","udp%3A%2F%2Ftracker.coppersurfer.tk%3A6969","udp%3A%2F%2Fexodus.desync.com%3A6969"],"infoHash":"bed40200a57bbe1c09b876267bd532c8ce6c5130","infoHashBuffer":{"type":"Buffer","data":[190,212,2,0,165,123,190,28,9,184,118,38,123,213,50,200,206,108,81,48]},"announce":[],"urlList":[]}}